<svg xmlns="http://www.w3.org/2000/svg" viewBox="0 0 12 12">
  <defs>
    <style>
      .cls-1 {
        fill: none;
      }

      .cls-2 {
        fill: #231f20;
      }
    </style>
  </defs>
  <g id="Layer_2" data-name="Layer 2">
    <g id="Layer_1-2" data-name="Layer 1">
      <g>
        <rect class="cls-1" width="12" height="12"/>
        <g>
          <path class="cls-2" d="M1.21216,8.46828A1.67043,1.67043,0,0,0,1.135,9.64064l.05664.1582.1665.022a1.7,1.7,0,0,0,1.1919-.44336,13.61247,13.61247,0,0,0,3.29.44873c.10351-.00049.20849-.00049.312,0a13.63654,13.63654,0,0,0,3.29736-.44873,1.70021,1.70021,0,0,0,1.19141.44336l.166-.022.05713-.15771a1.66378,1.66378,0,0,0-.07666-1.17285A11.20713,11.20713,0,0,0,10.781,3.54689a1.67148,1.67148,0,0,0,.083-1.1875l-.05713-.15723-.166-.02148a1.68592,1.68592,0,0,0-1.19141.44238A13.19953,13.19953,0,0,0,6.00464,2.1758a13.07755,13.07755,0,0,0-3.45459.44726,1.6791,1.6791,0,0,0-1.1919-.44238l-.1665.02148L1.135,2.36037a1.67654,1.67654,0,0,0,.0835,1.18652A11.22963,11.22963,0,0,0,1.21216,8.46828ZM1.74927,3.3838a1.32815,1.32815,0,0,1-.13819-.63623,1.66071,1.66071,0,0,1,.69532.38672l.11328.09815.144-.04248A13.52192,13.52192,0,0,1,6.00464,2.7256,14.00311,14.00311,0,0,1,9.43579,3.19l.144.04248.11329-.09815a1.66406,1.66406,0,0,1,.6958-.3872,1.32823,1.32823,0,0,1-.13819.63623l-.04931.09228.02295.10059a10.90119,10.90119,0,0,1,.00732,4.82324l-.03711.11377.05615.10449a1.32539,1.32539,0,0,1,.13819.63574,1.667,1.667,0,0,1-.6958-.3872l-.11329-.09815-.144.04248a13.47708,13.47708,0,0,1-3.43994.46436,13.84951,13.84951,0,0,1-3.43213-.46436l-.144-.04248-.11328.09815a1.68022,1.68022,0,0,1-.69532.38769,1.32909,1.32909,0,0,1,.13819-.63672l.05615-.10547-.0376-.11181a10.91867,10.91867,0,0,1,.00733-4.82373l.02246-.10157Z"/>
          <path class="cls-2" d="M9.1369,4.02482a4.16683,4.16683,0,0,0,0,3.89851A4.16661,4.16661,0,0,0,9.1369,4.02482Z"/>
        </g>
      </g>
    </g>
  </g>
</svg>
